<svg width="53" height="48" viewBox="0 0 53 48" fill="none" xmlns="http://www.w3.org/2000/svg">
<path d="M50.2586 23.995C50.2586 23.995 44.1886 19.355 42.9486 17.295C41.7386 15.285 40.5586 7.905 40.5586 7.905C34.1986 -2.635 18.3086 -2.635 11.9486 7.905C11.9486 7.905 10.6486 15.495 9.43856 17.505C8.19856 19.565 2.23856 23.985 2.23856 23.985C-4.12144 34.525 3.82856 47.705 16.5386 47.705C16.5386 47.705 23.7686 45.045 26.2386 45.045C28.7086 45.045 35.9386 47.705 35.9386 47.705C48.6486 47.705 56.5986 34.525 50.2386 23.985L50.2586 23.995ZM26.2486 39.525C18.8686 39.525 12.8786 33.535 12.8786 26.155C12.8786 18.775 18.8686 12.785 26.2486 12.785C33.6286 12.785 39.6186 18.775 39.6186 26.155C39.6186 33.535 33.6286 39.525 26.2486 39.525Z" fill="#54575C"/>
</svg>
