<?xml version="1.0" encoding="UTF-8" standalone="no"?>
<!DOCTYPE svg PUBLIC "-//W3C//DTD SVG 1.1//EN" "http://www.w3.org/Graphics/SVG/1.1/DTD/svg11.dtd">
<svg width="100%" height="100%" viewBox="0 0 476 64" version="1.1" xmlns="http://www.w3.org/2000/svg" xmlns:xlink="http://www.w3.org/1999/xlink" xml:space="preserve" xmlns:serif="http://www.serif.com/" style="fill-rule:evenodd;clip-rule:evenodd;stroke-linejoin:round;stroke-miterlimit:2;">
    <g id="Group-3.svg" serif:id="Group 3.svg" transform="matrix(1,0,0,1,37.4469,32)">
        <g transform="matrix(1,0,0,1,-27,-24.5)">
            <path d="M51.25,24.99C51.25,24.99 45.18,20.35 43.94,18.29C42.73,16.28 41.55,8.9 41.55,8.9C35.19,-1.64 19.3,-1.64 12.94,8.9C12.94,8.9 11.64,16.49 10.43,18.5C9.19,20.56 3.23,24.98 3.23,24.98C-3.13,35.52 4.82,48.7 17.53,48.7C17.53,48.7 24.76,46.04 27.23,46.04C29.7,46.04 36.93,48.7 36.93,48.7C49.64,48.7 57.59,35.52 51.23,24.98L51.25,24.99ZM27.24,40.52C19.86,40.52 13.87,34.53 13.87,27.15C13.87,19.77 19.86,13.78 27.24,13.78C34.62,13.78 40.61,19.77 40.61,27.15C40.61,34.53 34.62,40.52 27.24,40.52Z" style="fill:white;fill-rule:nonzero;"/>
            <path d="M51.259,24.995C51.259,24.995 45.189,20.355 43.949,18.295C42.739,16.285 41.559,8.905 41.559,8.905C35.199,-1.635 19.309,-1.635 12.949,8.905C12.949,8.905 11.649,16.495 10.439,18.505C9.199,20.565 3.239,24.985 3.239,24.985C-3.121,35.525 4.829,48.705 17.539,48.705C17.539,48.705 24.769,46.045 27.239,46.045C29.709,46.045 36.939,48.705 36.939,48.705C49.649,48.705 57.599,35.525 51.239,24.985L51.259,24.995ZM27.249,40.525C19.869,40.525 13.879,34.535 13.879,27.155C13.879,19.775 19.869,13.785 27.249,13.785C34.629,13.785 40.619,19.775 40.619,27.155C40.619,34.535 34.629,40.525 27.249,40.525Z" style="fill:white;fill-rule:nonzero;"/>
        </g>
    </g>
    <g id="Group.svg" transform="matrix(1,0,0,1,272.165,32)">
        <g transform="matrix(1,0,0,1,-193.5,-27)">
            <clipPath id="_clip1">
                <rect x="0" y="0" width="387" height="54"/>
            </clipPath>
            <g clip-path="url(#_clip1)">
                <path d="M8.582,17.816C8.582,17.816 11.184,13.748 18.604,13.748C18.604,13.748 23.641,13.696 26.411,18.029C29.24,13.476 36.821,13.748 36.821,13.748C36.821,13.748 46.901,13.696 46.901,23.169L46.901,36.013L49.503,36.013L49.503,40.831L40.921,40.831L40.921,23.486C40.921,17.06 27.69,17.868 27.69,23.221L27.69,36.02L30.344,36.02L30.344,40.837L21.704,40.837L21.704,23.492C21.704,16.964 8.582,17.926 8.582,23.492L8.582,36.02L11.236,36.02L11.236,40.837L2.602,40.837L2.602,20.651C2.602,18.881 0,18.94 0,18.94L0,14.07C3.158,12.786 8.582,13.108 8.582,17.067L8.582,17.816Z" style="fill:rgb(245,247,255);fill-rule:nonzero;"/>
                <path d="M79.686,29.543L60.307,29.543C60.417,33.398 63.794,36.02 67.778,36.02C71.763,36.02 73.59,34.683 75.973,33.288L78.801,37.518C75.314,39.765 70.775,41.373 66.287,41.373C54.605,41.373 54.379,29.595 54.379,29.595C54.379,29.595 52.332,13.696 67.888,13.696C82.398,13.696 79.686,29.536 79.686,29.543ZM74.094,25.313C74.094,25.313 75.095,18.998 68.114,18.998C61.14,18.998 60.197,25.313 60.197,25.313L74.094,25.313Z" style="fill:rgb(245,247,255);fill-rule:nonzero;"/>
                <path d="M87.325,9.415L84.671,9.415L84.671,4.539L93.311,4.539L93.311,14.071L98.626,14.071L98.626,18.94L93.311,18.94L93.311,34.412C93.311,36.233 95.965,36.02 95.965,36.02L95.965,40.837C92.866,42.071 87.325,41.373 87.325,37.143L87.325,9.415Z" style="fill:rgb(245,247,255);fill-rule:nonzero;"/>
                <path d="M103.385,31.687L103.385,23.176C103.443,13.754 112.8,13.703 112.8,13.703C119.058,13.703 121.938,15.788 122.984,16.97L122.984,14.077L131.398,14.077L131.398,18.946L128.964,18.946L128.964,34.199C128.964,34.948 129.131,36.02 131.12,36.02L131.12,40.837C128.079,42.284 122.984,41.748 122.984,37.195C122.984,37.944 118.883,41.367 112.904,41.367C112.904,41.38 103.437,41.108 103.385,31.687ZM109.358,24.726L109.358,30.563C109.358,38.325 122.984,37.415 122.984,30.563L122.984,24.726C122.984,17.816 109.358,16.318 109.358,24.726Z" style="fill:rgb(245,247,255);fill-rule:nonzero;"/>
                <path d="M170.382,31.687L170.382,23.176C170.44,13.754 179.797,13.703 179.797,13.703C186.054,13.703 188.934,15.788 189.98,16.97L189.98,14.077L198.395,14.077L198.395,18.946L195.96,18.946L195.96,34.199C195.96,34.948 196.128,36.02 198.117,36.02L198.117,40.837C195.075,42.284 189.98,41.748 189.98,37.195C189.98,37.944 185.88,41.367 179.9,41.367C179.907,41.38 170.44,41.108 170.382,31.687ZM176.362,24.726L176.362,30.563C176.362,38.325 189.987,37.415 189.987,30.563L189.987,24.726C189.98,17.816 176.362,16.318 176.362,24.726Z" style="fill:rgb(245,247,255);fill-rule:nonzero;"/>
                <path d="M212.627,17.816C212.627,17.816 215.23,13.748 222.649,13.748C222.649,13.748 227.686,13.696 230.456,18.029C233.285,13.476 240.866,13.748 240.866,13.748C240.866,13.748 250.946,13.696 250.946,23.169L250.946,36.013L253.549,36.013L253.549,40.831L244.967,40.831L244.967,23.486C244.967,17.06 231.729,17.868 231.729,23.221L231.729,36.02L234.383,36.02L234.383,40.837L225.742,40.837L225.742,23.492C225.742,16.964 212.621,17.926 212.621,23.492L212.621,36.02L215.275,36.02L215.275,40.837L206.635,40.837L206.635,20.651C206.635,18.881 204.032,18.94 204.032,18.94L204.032,14.07C207.19,12.786 212.614,13.108 212.614,17.067L212.614,17.816L212.627,17.816Z" style="fill:rgb(245,247,255);fill-rule:nonzero;"/>
                <path d="M283.725,29.543L264.346,29.543C264.455,33.398 267.833,36.02 271.817,36.02C275.801,36.02 277.629,34.683 280.012,33.288L282.84,37.518C279.353,39.765 274.813,41.373 270.325,41.373C258.644,41.373 258.424,29.595 258.424,29.595C258.424,29.595 256.377,13.696 271.933,13.696C286.437,13.696 283.725,29.536 283.725,29.543ZM278.132,25.313C278.132,25.313 279.133,18.998 272.153,18.998C265.179,18.998 264.236,25.313 264.236,25.313L278.132,25.313Z" style="fill:rgb(245,247,255);fill-rule:nonzero;"/>
                <path d="M297.292,17.177C298.403,15.943 301.832,13.748 306.591,13.748C306.591,13.748 315.728,13.851 315.728,23.279L315.728,36.02L318.44,36.02L318.44,40.837L309.69,40.837L309.749,23.596C309.749,16.796 297.292,18.191 297.292,23.596L297.292,36.013L299.894,36.013L299.894,40.831L291.312,40.831L291.312,7.271C291.312,5.501 288.71,5.56 288.71,5.56L288.71,0.684C292.036,-0.653 297.292,-0.33 297.292,4.378L297.292,17.177Z" style="fill:rgb(245,247,255);fill-rule:nonzero;"/>
                <path d="M351.438,14.071L351.438,34.257C351.496,35.006 351.826,35.968 353.821,35.968L353.821,40.837C350.334,41.961 345.517,41.799 345.517,36.872C345.517,36.872 343.134,41.154 336.379,41.154C336.379,41.154 326.357,41.102 326.357,31.571L326.357,18.882L323.755,18.882L323.755,14.064L332.395,14.064L332.395,31.358C332.395,37.834 345.465,37.137 345.465,31.358L345.465,18.888L342.863,18.888L342.805,14.071L351.438,14.071Z" style="fill:rgb(245,247,255);fill-rule:nonzero;"/>
                <path d="M377.411,41.373C370.876,41.373 367.615,37.841 367.615,37.092C367.615,40.734 363.74,42.283 359.917,40.837L359.917,35.968C361.913,35.968 362.242,34.683 362.3,33.934L362.3,5.56L359.646,5.56L359.646,0.684L368.286,0.684L368.286,17.067C373.323,11.178 387,12.837 387,23.221L387,31.893C386.994,41.321 377.411,41.373 377.411,41.373ZM380.898,23.492C380.898,16.802 368.273,18.087 368.273,23.492L368.273,31.306C368.273,36.769 380.898,38.267 380.898,31.306L380.898,23.492Z" style="fill:rgb(245,247,255);fill-rule:nonzero;"/>
                <path d="M156.75,17.997C156.75,17.248 153.444,13.715 146.825,13.715C146.825,13.715 137.125,13.767 137.125,23.189L137.125,31.861C137.125,42.245 150.977,43.904 156.078,38.015L156.078,42.193C156.078,44.376 155.652,46.035 154.438,47.178C153.224,48.321 151.636,48.896 149.666,48.896C147.981,48.896 146.534,48.534 145.32,47.811C144.106,47.088 143.312,46.145 142.944,44.97L138.107,44.97L137.158,44.989L137.158,45.202C137.468,47.856 138.766,49.962 141.052,51.505C143.338,53.055 146.211,53.83 149.672,53.83C152.268,53.83 154.496,53.326 156.369,52.325C158.235,51.324 159.662,49.942 160.657,48.186C161.645,46.429 162.142,44.427 162.142,42.187L162.142,21.155C162.2,20.405 162.536,19.12 164.551,19.12L164.551,14.251C160.683,12.805 156.756,14.361 156.75,17.997ZM143.292,31.596L143.292,23.776C143.292,16.815 156.078,18.313 156.078,23.776L156.078,31.596C156.078,37.001 143.292,38.286 143.292,31.596Z" style="fill:rgb(245,247,255);fill-rule:nonzero;"/>
            </g>
        </g>
    </g>
</svg>
