<svg width="193" height="40" viewBox="0 0 193 40" fill="none" xmlns="http://www.w3.org/2000/svg">
<path d="M39.2527 18.8938C39.2527 18.8938 34.6773 15.6078 33.766 14.0123C32.8548 12.4168 32.3127 6.79692 32.3127 6.79692C27.077 -2.26564 14.0089 -2.26564 8.79445 6.79692C8.79445 6.79692 8.25241 12.4168 7.34113 14.0123C6.42984 15.6078 1.83554 18.8938 1.83554 18.8938C-3.3789 27.9753 3.13501 39.3148 13.5852 39.3148C13.5852 39.3148 18.7026 37.0403 20.5465 37.0403C22.3904 37.0403 27.5078 39.3148 27.5078 39.3148C37.958 39.3148 44.4932 27.9753 39.2574 18.8938H39.2527ZM20.5417 32.4295C14.629 32.4295 9.83829 27.6263 9.83829 21.693C9.83829 15.7598 14.6267 10.9566 20.5417 10.9566C26.4568 10.9566 31.2452 15.7598 31.2452 21.693C31.2452 27.6263 26.4568 32.4295 20.5417 32.4295Z" fill="url(#paint0_linear_1110_2)"/>
<path d="M67.3346 9.09826V15.1284H61.2886V31.7908H53.7509V15.1284H47.7048V9.09826H67.3346ZM88.7668 9.09826V31.7908H81.2291V23.5231H75.8337V31.7908H68.2959V9.09826H75.8337V17.4136H81.2291V9.09826H88.7668ZM90.2086 9.09826H106.411V15.1284H97.7464V17.7151H105.538V23.1898H97.7464V25.7606H106.649V31.7908H90.2086V9.09826ZM131.21 9.09826V31.7908H123.672V23.5231H118.277V31.7908H110.739V9.09826H118.277V17.4136H123.672V9.09826H131.21ZM132.497 23.0629V9.09826H140.034V22.1901C140.034 25.2607 140.923 26.1573 142.732 26.1573C144.541 26.1573 145.43 25.2607 145.43 22.1901V9.09826H152.968V23.0629C152.968 29.1962 148.58 32.2668 142.732 32.2668C136.885 32.2668 132.497 29.1962 132.497 23.0629ZM154.254 9.09826H166.085C171.488 9.09826 174.479 10.8676 174.479 14.6365C174.479 17.7309 172.464 19.6907 169.687 20.0081C172.972 20.3096 175.439 22.4837 175.439 25.6654C175.439 29.6326 171.607 31.7908 165.934 31.7908H154.254V9.09826ZM165.045 17.9848C166.267 17.9848 167.021 17.4532 167.021 16.2075C167.021 14.9856 166.291 14.4937 165.045 14.4937H161.792V17.9848H165.045ZM161.792 26.3953H165.759C167.108 26.3953 167.87 25.8717 167.87 24.5784C167.87 23.2771 167.1 22.7455 165.759 22.7455H161.792V26.3953Z" fill="white"/>
<path d="M182.697 25.4432V31.7908H176.508V25.4432H182.697Z" fill="#1AB3F4"/>
<defs>
<linearGradient id="paint0_linear_1110_2" x1="20.5465" y1="-0.000593566" x2="20.5465" y2="39.3148" gradientUnits="userSpaceOnUse">
<stop stop-color="#19D8F3"/>
<stop offset="1" stop-color="#197FF3"/>
</linearGradient>
</defs>
</svg>
